<svg id="Layer_1" data-name="Layer 1" xmlns="http://www.w3.org/2000/svg" viewBox="0 0 83.34 122.88"><defs><style>.cls-1{fill-rule:evenodd;}</style></defs><title>alienware-laptop</title><path class="cls-1" d="M13.22,13.5C21.13,5.59,31.84,0,41.61,0S62.09,5.59,70,13.5C76.52,20,81.17,26.07,82.11,35.38,84,47,83.5,65.17,82.11,71.22c-.94,6.52-6.06,14.43-10.7,22.34-9.32,15.36-21.88,29.32-29.8,29.32s-20-14-29.32-29.32C7.17,85.64,2.52,77.74,1.12,71.22-.28,65.63-.28,48,.66,36.31,2.05,26.53,6.24,20.48,13.22,13.5Zm4.2,52.13c6,3.26,14.88,14.43,16.74,21.88,2.81,9.31,1.41,11.17-8.37,6C20.2,90.77,11.36,81.93,9.5,76.34,4.85,65.63,5.31,59.58,17.42,65.63Zm48.86,0c-6.52,3.26-15.36,14.43-17.22,21.88-2.33,9.31-1.39,11.17,8.38,6C63,90.77,71.87,81.93,74.2,76.34c4.19-10.71,3.72-16.76-7.92-10.71Z"/></svg>